<svg width="122" height="84" viewBox="0 0 122 84" fill="none" xmlns="http://www.w3.org/2000/svg">
<path d="M118.796 13.1176C117.398 7.95157 113.293 3.89182 108.069 2.50894C98.6109 7.51018e-07 60.6665 0 60.6665 0C60.6665 0 22.7225 7.51018e-07 13.2639 2.50894C8.04029 3.89182 3.93524 7.95157 2.53693 13.1176C7.59399e-07 22.4718 0 42 0 42C0 42 7.59399e-07 61.5283 2.53693 70.8826C3.93524 76.0486 8.04029 80.1083 13.2639 81.4909C22.7225 84 60.6665 84 60.6665 84C60.6665 84 98.6109 84 108.069 81.4909C113.293 80.1083 117.398 76.0486 118.796 70.8826C121.333 61.5283 121.333 42 121.333 42C121.333 42 121.323 22.4718 118.796 13.1176Z" fill="#FF0000"/>
<path d="M84 35.4667C84 34.4765 83.5977 33.527 82.8817 32.8268C82.1656 32.1267 81.1945 31.7334 80.1818 31.7334H68.1164L69.9491 23.2027C69.9873 23.016 70.0064 22.8107 70.0064 22.6054C70.0064 21.84 69.6818 21.1307 69.1664 20.6267L67.1427 18.6667L54.5809 30.9494C53.8745 31.64 53.4545 32.5734 53.4545 33.6V52.2667C53.4545 53.2568 53.8568 54.2064 54.5729 54.9066C55.2889 55.6067 56.2601 56 57.2727 56H74.4545C76.0391 56 77.3945 55.0667 77.9673 53.7227L83.7327 40.5627C83.9045 40.1334 84 39.6854 84 39.2V35.4667ZM42 56H49.6364V33.6H42V56Z" fill="#F8F8F8"/>
</svg>