<svg width="81" height="77" viewBox="0 0 81 77" fill="none" xmlns="http://www.w3.org/2000/svg">
<path d="M70.9551 31.7059H51.9228L58.7618 9.33059C60.2016 4.66529 56.4221 0 51.2029 0C48.5932 0 46.0736 1.08706 44.3638 2.94412L17.9975 31.7059H0V77H17.9975H22.4969H64.926C69.6953 77 73.8347 73.9653 74.7796 69.7076L80.8087 42.5312C82.0236 36.9147 77.2992 31.7059 70.9551 31.7059ZM17.9975 72.4706H4.49937V36.2353H17.9975V72.4706ZM76.3994 41.5347L70.3702 68.7112C69.9203 70.8853 67.6256 72.4706 64.926 72.4706H22.4969V33.4724L47.6934 6.02412C48.5482 5.07294 49.8531 4.52941 51.2029 4.52941C52.3727 4.52941 53.4526 5.02765 54.0375 5.88824C54.3524 6.34118 54.7124 7.06588 54.4424 8.01706L47.6034 30.3924L45.8036 36.2353H51.8778H70.9101C72.7549 36.2353 74.5096 37.0053 75.5445 38.3188C76.1294 38.9982 76.7143 40.1306 76.3994 41.5347Z" fill="white"/>
</svg>
