<svg width="118" height="19" viewBox="0 0 118 19" fill="none" xmlns="http://www.w3.org/2000/svg">
<path d="M25.4563 2.81092C25.1568 1.70391 24.277 0.833961 23.1577 0.537629C21.1309 1.60933e-07 13 0 13 0C13 0 4.86911 1.60933e-07 2.84227 0.537629C1.72292 0.833961 0.843266 1.70391 0.543628 2.81092C1.62728e-07 4.81538 0 9 0 9C0 9 1.62728e-07 13.1846 0.543628 15.1891C0.843266 16.2961 1.72292 17.1661 2.84227 17.4623C4.86911 18 13 18 13 18C13 18 21.1309 18 23.1577 17.4623C24.277 17.1661 25.1568 16.2961 25.4563 15.1891C26 13.1846 26 9 26 9C26 9 25.9978 4.81538 25.4563 2.81092Z" fill="#FF0000"/>
<path d="M18 7.6C18 7.38783 17.9138 7.18434 17.7604 7.03431C17.6069 6.88429 17.3988 6.8 17.1818 6.8H14.5964L14.9891 4.972C14.9973 4.932 15.0014 4.888 15.0014 4.844C15.0014 4.68 14.9318 4.528 14.8214 4.42L14.3877 4L11.6959 6.632C11.5445 6.78 11.4545 6.98 11.4545 7.2V11.2C11.4545 11.4122 11.5407 11.6157 11.6942 11.7657C11.8476 11.9157 12.0557 12 12.2727 12H15.9545C16.2941 12 16.5845 11.8 16.7073 11.512L17.9427 8.692C17.9795 8.6 18 8.504 18 8.4V7.6ZM9 12H10.6364V7.2H9V12Z" fill="#F8F8F8"/>
<path d="M35.2344 13.1094V15H30.5078V13.1094H35.2344ZM31.2109 3.625V15H28.9219V3.625H31.2109ZM38.7656 6.54688V15H36.5703V6.54688H38.7656ZM36.4688 4.35938C36.4688 4.02083 36.5755 3.74219 36.7891 3.52344C37.0078 3.29948 37.2995 3.1875 37.6641 3.1875C38.0339 3.1875 38.3255 3.29948 38.5391 3.52344C38.7526 3.74219 38.8594 4.02083 38.8594 4.35938C38.8594 4.69271 38.75 4.97135 38.5312 5.19531C38.3177 5.41406 38.0312 5.52344 37.6719 5.52344C37.3021 5.52344 37.0078 5.41406 36.7891 5.19531C36.5755 4.97135 36.4688 4.69271 36.4688 4.35938ZM42.6875 2.99219V15H40.5V2.99219H42.6875ZM47.1328 6.54688L44.1562 10.75L42.3672 12.7578L41.5938 11.0938L42.9688 9.08594L44.5234 6.54688H47.1328ZM44.8516 15L43.0078 11.1172L44.5156 9.72656L47.3594 15H44.8516ZM51.4062 15.1562C50.8281 15.1562 50.3151 15.0677 49.8672 14.8906C49.4245 14.7135 49.0495 14.4583 48.7422 14.125C48.4349 13.7865 48.2005 13.3776 48.0391 12.8984C47.8776 12.4193 47.7969 11.8724 47.7969 11.2578V10.5625C47.7969 9.875 47.875 9.27344 48.0312 8.75781C48.1875 8.23698 48.4089 7.79948 48.6953 7.44531C48.9818 7.09115 49.3333 6.82812 49.75 6.65625C50.1719 6.47917 50.6484 6.39062 51.1797 6.39062C51.7109 6.39062 52.1771 6.47917 52.5781 6.65625C52.9844 6.82812 53.3203 7.08854 53.5859 7.4375C53.8516 7.78125 54.0521 8.20833 54.1875 8.71875C54.3229 9.22917 54.3906 9.82292 54.3906 10.5V11.5H48.7266V9.96094H52.2422V9.76562C52.2422 9.42188 52.2057 9.13542 52.1328 8.90625C52.0599 8.67188 51.9453 8.4974 51.7891 8.38281C51.6328 8.26823 51.4245 8.21094 51.1641 8.21094C50.9453 8.21094 50.7604 8.25521 50.6094 8.34375C50.4583 8.43229 50.3385 8.57031 50.25 8.75781C50.1615 8.94531 50.0964 9.1901 50.0547 9.49219C50.013 9.78906 49.9922 10.1458 49.9922 10.5625V11.2578C49.9922 11.6484 50.026 11.9766 50.0938 12.2422C50.1615 12.5026 50.2604 12.7161 50.3906 12.8828C50.526 13.0443 50.6901 13.1615 50.8828 13.2344C51.0755 13.3021 51.2995 13.3359 51.5547 13.3359C51.9401 13.3359 52.2865 13.2682 52.5938 13.1328C52.9062 12.9922 53.1719 12.8021 53.3906 12.5625L54.2656 13.8906C54.1146 14.0885 53.9062 14.2865 53.6406 14.4844C53.375 14.6823 53.0573 14.8438 52.6875 14.9688C52.3177 15.0938 51.8906 15.1562 51.4062 15.1562ZM61.1875 11.2109H63.4609C63.4297 12.0651 63.2578 12.7865 62.9453 13.375C62.6328 13.9583 62.1875 14.401 61.6094 14.7031C61.0365 15.0052 60.3438 15.1562 59.5312 15.1562C58.901 15.1562 58.3411 15.0521 57.8516 14.8438C57.362 14.6302 56.9453 14.3177 56.6016 13.9062C56.2578 13.4948 55.9974 12.987 55.8203 12.3828C55.6484 11.7734 55.5625 11.0729 55.5625 10.2812V8.35156C55.5625 7.5599 55.6536 6.85938 55.8359 6.25C56.0234 5.64062 56.2891 5.13021 56.6328 4.71875C56.9818 4.30208 57.401 3.98958 57.8906 3.78125C58.3854 3.56771 58.9427 3.46094 59.5625 3.46094C60.3906 3.46094 61.0833 3.61719 61.6406 3.92969C62.1979 4.24219 62.6276 4.69792 62.9297 5.29688C63.237 5.89062 63.4219 6.61719 63.4844 7.47656H61.2031C61.1875 6.9349 61.125 6.51042 61.0156 6.20312C60.9115 5.89062 60.7448 5.67188 60.5156 5.54688C60.2865 5.41667 59.9688 5.35156 59.5625 5.35156C59.2604 5.35156 59 5.40625 58.7812 5.51562C58.5625 5.61979 58.3828 5.78906 58.2422 6.02344C58.1016 6.25781 57.9974 6.5651 57.9297 6.94531C57.8672 7.32552 57.8359 7.78906 57.8359 8.33594V10.2812C57.8359 10.8177 57.8646 11.276 57.9219 11.6562C57.9792 12.0312 58.0703 12.3385 58.1953 12.5781C58.3203 12.8177 58.4896 12.9922 58.7031 13.1016C58.9219 13.2109 59.1979 13.2656 59.5312 13.2656C59.9167 13.2656 60.2266 13.2083 60.4609 13.0938C60.7005 12.9792 60.8776 12.7734 60.9922 12.4766C61.1068 12.1797 61.1719 11.7578 61.1875 11.2109ZM64.5312 11.0625V10.4922C64.5312 9.83073 64.6094 9.24479 64.7656 8.73438C64.9271 8.22396 65.1562 7.79688 65.4531 7.45312C65.75 7.10417 66.1068 6.84115 66.5234 6.66406C66.9453 6.48177 67.4167 6.39062 67.9375 6.39062C68.4635 6.39062 68.9349 6.48177 69.3516 6.66406C69.7734 6.84115 70.1328 7.10417 70.4297 7.45312C70.7318 7.79688 70.9635 8.22396 71.125 8.73438C71.2865 9.24479 71.3672 9.83073 71.3672 10.4922V11.0625C71.3672 11.7188 71.2865 12.3021 71.125 12.8125C70.9635 13.3229 70.7318 13.7526 70.4297 14.1016C70.1328 14.4505 69.776 14.7135 69.3594 14.8906C68.9427 15.0677 68.474 15.1562 67.9531 15.1562C67.4323 15.1562 66.9609 15.0677 66.5391 14.8906C66.1224 14.7135 65.763 14.4505 65.4609 14.1016C65.1589 13.7526 64.9271 13.3229 64.7656 12.8125C64.6094 12.3021 64.5312 11.7188 64.5312 11.0625ZM66.7188 10.4922V11.0625C66.7188 11.4531 66.7448 11.7917 66.7969 12.0781C66.8542 12.3646 66.9349 12.6016 67.0391 12.7891C67.1484 12.9766 67.2786 13.1146 67.4297 13.2031C67.5807 13.2917 67.7552 13.3359 67.9531 13.3359C68.151 13.3359 68.3281 13.2917 68.4844 13.2031C68.6406 13.1146 68.7682 12.9766 68.8672 12.7891C68.9714 12.6016 69.0469 12.3646 69.0938 12.0781C69.1458 11.7917 69.1719 11.4531 69.1719 11.0625V10.4922C69.1719 10.112 69.1432 9.77865 69.0859 9.49219C69.0286 9.20052 68.9479 8.96354 68.8438 8.78125C68.7396 8.59375 68.6094 8.45312 68.4531 8.35938C68.3021 8.26042 68.1302 8.21094 67.9375 8.21094C67.7448 8.21094 67.5729 8.26042 67.4219 8.35938C67.276 8.45312 67.1484 8.59375 67.0391 8.78125C66.9349 8.96354 66.8542 9.20052 66.7969 9.49219C66.7448 9.77865 66.7188 10.112 66.7188 10.4922ZM74.9531 8.29688V15H72.7578V6.54688H74.8203L74.9531 8.29688ZM74.6406 10.4844L74.0391 10.5C74.0286 9.90625 74.0807 9.35938 74.1953 8.85938C74.3099 8.35938 74.4818 7.92448 74.7109 7.55469C74.9453 7.1849 75.2396 6.89844 75.5938 6.69531C75.9479 6.49219 76.362 6.39062 76.8359 6.39062C77.1432 6.39062 77.4271 6.44792 77.6875 6.5625C77.9479 6.67188 78.1745 6.84635 78.3672 7.08594C78.5599 7.32031 78.7083 7.6276 78.8125 8.00781C78.9167 8.38281 78.9688 8.83333 78.9688 9.35938V15H76.7812V9.625C76.7812 9.25 76.7448 8.96354 76.6719 8.76562C76.599 8.5625 76.4948 8.42188 76.3594 8.34375C76.224 8.26042 76.0573 8.21875 75.8594 8.21875C75.651 8.21875 75.4688 8.27604 75.3125 8.39062C75.1562 8.50521 75.0286 8.66667 74.9297 8.875C74.8359 9.07812 74.763 9.31771 74.7109 9.59375C74.6641 9.86979 74.6406 10.1667 74.6406 10.4844ZM78.7578 10.2656L77.9688 10.3672C77.9583 9.8099 78.0078 9.29167 78.1172 8.8125C78.2266 8.32812 78.3958 7.90625 78.625 7.54688C78.8542 7.18229 79.1406 6.89844 79.4844 6.69531C79.8333 6.49219 80.237 6.39062 80.6953 6.39062C81.0391 6.39062 81.3516 6.44792 81.6328 6.5625C81.9141 6.67708 82.1536 6.86198 82.3516 7.11719C82.5547 7.36719 82.7083 7.69792 82.8125 8.10938C82.9219 8.52083 82.9766 9.02083 82.9766 9.60938V15H80.7812V9.61719C80.7812 9.23698 80.7448 8.94531 80.6719 8.74219C80.599 8.53906 80.4948 8.40104 80.3594 8.32812C80.224 8.25521 80.0625 8.21875 79.875 8.21875C79.6875 8.21875 79.5234 8.27083 79.3828 8.375C79.2474 8.47917 79.1328 8.625 79.0391 8.8125C78.9453 8.99479 78.875 9.21094 78.8281 9.46094C78.7812 9.70573 78.7578 9.97396 78.7578 10.2656ZM86.8281 8.29688V15H84.6328V6.54688H86.6953L86.8281 8.29688ZM86.5156 10.4844L85.9141 10.5C85.9036 9.90625 85.9557 9.35938 86.0703 8.85938C86.1849 8.35938 86.3568 7.92448 86.5859 7.55469C86.8203 7.1849 87.1146 6.89844 87.4688 6.69531C87.8229 6.49219 88.237 6.39062 88.7109 6.39062C89.0182 6.39062 89.3021 6.44792 89.5625 6.5625C89.8229 6.67188 90.0495 6.84635 90.2422 7.08594C90.4349 7.32031 90.5833 7.6276 90.6875 8.00781C90.7917 8.38281 90.8438 8.83333 90.8438 9.35938V15H88.6562V9.625C88.6562 9.25 88.6198 8.96354 88.5469 8.76562C88.474 8.5625 88.3698 8.42188 88.2344 8.34375C88.099 8.26042 87.9323 8.21875 87.7344 8.21875C87.526 8.21875 87.3438 8.27604 87.1875 8.39062C87.0312 8.50521 86.9036 8.66667 86.8047 8.875C86.7109 9.07812 86.638 9.31771 86.5859 9.59375C86.5391 9.86979 86.5156 10.1667 86.5156 10.4844ZM90.6328 10.2656L89.8438 10.3672C89.8333 9.8099 89.8828 9.29167 89.9922 8.8125C90.1016 8.32812 90.2708 7.90625 90.5 7.54688C90.7292 7.18229 91.0156 6.89844 91.3594 6.69531C91.7083 6.49219 92.112 6.39062 92.5703 6.39062C92.9141 6.39062 93.2266 6.44792 93.5078 6.5625C93.7891 6.67708 94.0286 6.86198 94.2266 7.11719C94.4297 7.36719 94.5833 7.69792 94.6875 8.10938C94.7969 8.52083 94.8516 9.02083 94.8516 9.60938V15H92.6562V9.61719C92.6562 9.23698 92.6198 8.94531 92.5469 8.74219C92.474 8.53906 92.3698 8.40104 92.2344 8.32812C92.099 8.25521 91.9375 8.21875 91.75 8.21875C91.5625 8.21875 91.3984 8.27083 91.2578 8.375C91.1224 8.47917 91.0078 8.625 90.9141 8.8125C90.8203 8.99479 90.75 9.21094 90.7031 9.46094C90.6562 9.70573 90.6328 9.97396 90.6328 10.2656ZM98.6484 8.35156V15H96.4531V6.54688H98.5078L98.6484 8.35156ZM98.3203 10.4844L97.7344 10.5C97.724 9.86458 97.7839 9.29427 97.9141 8.78906C98.0495 8.28385 98.2396 7.85417 98.4844 7.5C98.7344 7.14062 99.0312 6.86719 99.375 6.67969C99.724 6.48698 100.112 6.39062 100.539 6.39062C100.867 6.39062 101.167 6.44792 101.438 6.5625C101.714 6.67708 101.951 6.85938 102.148 7.10938C102.346 7.35938 102.5 7.69271 102.609 8.10938C102.719 8.52083 102.773 9.02604 102.773 9.625V15H100.578V9.60938C100.578 9.24479 100.542 8.96354 100.469 8.76562C100.396 8.5625 100.286 8.42188 100.141 8.34375C99.9948 8.26042 99.8125 8.21875 99.5938 8.21875C99.3854 8.21875 99.2005 8.27865 99.0391 8.39844C98.8776 8.51302 98.7422 8.67188 98.6328 8.875C98.5286 9.07812 98.4479 9.31771 98.3906 9.59375C98.3385 9.86979 98.3151 10.1667 98.3203 10.4844ZM107.781 15.1562C107.203 15.1562 106.69 15.0677 106.242 14.8906C105.799 14.7135 105.424 14.4583 105.117 14.125C104.81 13.7865 104.576 13.3776 104.414 12.8984C104.253 12.4193 104.172 11.8724 104.172 11.2578V10.5625C104.172 9.875 104.25 9.27344 104.406 8.75781C104.562 8.23698 104.784 7.79948 105.07 7.44531C105.357 7.09115 105.708 6.82812 106.125 6.65625C106.547 6.47917 107.023 6.39062 107.555 6.39062C108.086 6.39062 108.552 6.47917 108.953 6.65625C109.359 6.82812 109.695 7.08854 109.961 7.4375C110.227 7.78125 110.427 8.20833 110.562 8.71875C110.698 9.22917 110.766 9.82292 110.766 10.5V11.5H105.102V9.96094H108.617V9.76562C108.617 9.42188 108.581 9.13542 108.508 8.90625C108.435 8.67188 108.32 8.4974 108.164 8.38281C108.008 8.26823 107.799 8.21094 107.539 8.21094C107.32 8.21094 107.135 8.25521 106.984 8.34375C106.833 8.43229 106.714 8.57031 106.625 8.75781C106.536 8.94531 106.471 9.1901 106.43 9.49219C106.388 9.78906 106.367 10.1458 106.367 10.5625V11.2578C106.367 11.6484 106.401 11.9766 106.469 12.2422C106.536 12.5026 106.635 12.7161 106.766 12.8828C106.901 13.0443 107.065 13.1615 107.258 13.2344C107.451 13.3021 107.674 13.3359 107.93 13.3359C108.315 13.3359 108.661 13.2682 108.969 13.1328C109.281 12.9922 109.547 12.8021 109.766 12.5625L110.641 13.8906C110.49 14.0885 110.281 14.2865 110.016 14.4844C109.75 14.6823 109.432 14.8438 109.062 14.9688C108.693 15.0938 108.266 15.1562 107.781 15.1562ZM115.719 6.54688V8.19531H111.406V6.54688H115.719ZM112.398 4.46094H114.578V12.4219C114.578 12.6562 114.602 12.8359 114.648 12.9609C114.695 13.0859 114.766 13.1745 114.859 13.2266C114.958 13.2734 115.089 13.2969 115.25 13.2969C115.359 13.2969 115.461 13.2917 115.555 13.2812C115.648 13.2656 115.719 13.25 115.766 13.2344V14.9453C115.594 15.013 115.411 15.0651 115.219 15.1016C115.031 15.138 114.807 15.1562 114.547 15.1562C114.109 15.1562 113.729 15.0729 113.406 14.9062C113.089 14.7396 112.841 14.474 112.664 14.1094C112.487 13.7396 112.398 13.2552 112.398 12.6562V4.46094Z" fill="white"/>
</svg>
